<svg width="768" height="200" viewBox="0 0 768 200" fill="none" xmlns="http://www.w3.org/2000/svg">
<g clip-path="url(#clip0_3473_135)">
<rect width="768" height="200" fill="#3F8044"/>
<path d="M769.196 -198.782H0.5V253.392H769.196V-198.782Z" fill="#3F8044"/>
<path d="M148.587 -198.782H52.5V253.392H148.587V-198.782Z" fill="#37733A"/>
<path d="M340.761 -198.782H244.674V253.392H340.761V-198.782Z" fill="#37733A"/>
<path d="M532.935 -198.782H436.848V253.392H532.935V-198.782Z" fill="#37733A"/>
<path d="M725.108 -198.782H629.021V253.392H725.108V-198.782Z" fill="#37733A"/>
<path d="M0.5 174.261H769.196" stroke="#F4F3EC" stroke-width="4.52174"/>
<path d="M38.2383 -198.782V174.261" stroke="#F4F3EC" stroke-width="3.3913"/>
<path d="M112.98 -198.782V174.261" stroke="#F4F3EC" stroke-width="3.3913"/>
<path d="M667.717 -198.782V174.261" stroke="#F4F3EC" stroke-width="3.3913"/>
<path d="M742.457 -198.782V174.261" stroke="#F4F3EC" stroke-width="3.3913"/>
<path d="M384.5 174.261V159.283" stroke="#F4F3EC" stroke-width="3.3913"/>
<path opacity="0.6" d="M540.456 194.37C559.186 194.37 574.369 189.815 574.369 184.196C574.369 178.577 559.186 174.022 540.456 174.022C521.726 174.022 506.543 178.577 506.543 184.196C506.543 189.815 521.726 194.37 540.456 194.37Z" fill="#2B5A2E"/>
<g clip-path="url(#clip1_3473_135)">
<path d="M531.022 185.326C547.878 185.326 561.543 171.661 561.543 154.804C561.543 137.948 547.878 124.283 531.022 124.283C514.165 124.283 500.5 137.948 500.5 154.804C500.5 171.661 514.165 185.326 531.022 185.326Z" fill="#D9E442"/>
<path d="M504.586 139.009C521.919 148.806 523.803 161.617 510.238 177.443" stroke="#F7F6EE" stroke-width="3.16522"/>
<path d="M554.762 134.457C541.661 147.558 542.267 159.956 556.581 171.651C557.088 172.065 557.612 172.479 558.154 172.891" stroke="#F7F6EE" stroke-width="3.16522"/>
</g>
<path d="M227.759 70V67.91C228.469 67.8847 229.013 67.758 229.393 67.53C229.773 67.302 230.039 66.922 230.191 66.39C230.343 65.8327 230.419 65.06 230.419 64.072V49.062C230.419 48.378 230.432 47.7447 230.457 47.162C230.508 46.5793 230.546 46.1233 230.571 45.794C230.141 45.8193 229.647 45.8447 229.089 45.87C228.532 45.87 228.089 45.8827 227.759 45.908V43.4C229.381 43.3747 231.015 43.362 232.661 43.362C234.308 43.362 235.967 43.3493 237.639 43.324C240.629 43.2987 242.997 43.8433 244.745 44.958C246.493 46.0727 247.317 47.7827 247.215 50.088C247.19 50.848 246.962 51.5953 246.531 52.33C246.101 53.0647 245.467 53.7233 244.631 54.306C243.795 54.8887 242.744 55.332 241.477 55.636V55.674C244.087 55.9527 246.025 56.738 247.291 58.03C248.558 59.2967 249.191 60.7787 249.191 62.476C249.191 64.0973 248.799 65.4653 248.013 66.58C247.228 67.6947 246.139 68.5433 244.745 69.126C243.377 69.7087 241.819 70 240.071 70H227.759ZM235.055 67.682C235.486 67.7073 235.929 67.72 236.385 67.72C236.867 67.72 237.323 67.72 237.753 67.72C238.184 67.6947 238.551 67.682 238.855 67.682C240.527 67.6313 241.794 67.15 242.655 66.238C243.542 65.3007 243.985 64.0467 243.985 62.476C243.985 61.184 243.719 60.1707 243.187 59.436C242.681 58.7013 242.009 58.182 241.173 57.878C240.363 57.574 239.489 57.422 238.551 57.422C237.867 57.422 237.272 57.422 236.765 57.422C236.259 57.422 235.739 57.4473 235.207 57.498V64.49C235.207 65.174 235.195 65.7947 235.169 66.352C235.144 66.9093 235.106 67.3527 235.055 67.682ZM235.207 55.18L237.449 55.142C238.64 55.1167 239.577 54.8633 240.261 54.382C240.945 53.8753 241.439 53.2293 241.743 52.444C242.047 51.6333 242.199 50.7593 242.199 49.822C242.174 48.7073 241.921 47.846 241.439 47.238C240.983 46.6047 240.413 46.1613 239.729 45.908C239.045 45.6547 238.336 45.5407 237.601 45.566C237.069 45.566 236.626 45.642 236.271 45.794C235.917 45.946 235.651 46.2627 235.473 46.744C235.296 47.2253 235.207 47.9473 235.207 48.91V55.18ZM259.627 70.608C258.158 70.608 256.954 70.3293 256.017 69.772C255.105 69.2147 254.434 68.328 254.003 67.112C253.572 65.8707 253.357 64.2493 253.357 62.248V57.08C253.357 56.6493 253.37 56.168 253.395 55.636C253.42 55.104 253.446 54.572 253.471 54.04C253.066 54.0653 252.61 54.0907 252.103 54.116C251.596 54.116 251.178 54.1287 250.849 54.154V51.722H251.495C252.888 51.722 253.965 51.608 254.725 51.38C255.51 51.1267 256.042 50.8733 256.321 50.62H258.069V62.248C258.069 64.072 258.31 65.4273 258.791 66.314C259.298 67.2007 260.108 67.644 261.223 67.644C261.983 67.6187 262.73 67.3907 263.465 66.96C264.225 66.5293 264.833 66.0227 265.289 65.44V57.232C265.289 56.7253 265.302 56.206 265.327 55.674C265.352 55.1167 265.39 54.572 265.441 54.04C265.036 54.0653 264.567 54.0907 264.035 54.116C263.528 54.116 263.11 54.1287 262.781 54.154V51.722H263.769C264.934 51.722 265.897 51.5953 266.657 51.342C267.442 51.0887 267.962 50.848 268.215 50.62H269.963V64.262C269.963 64.6167 269.95 65.136 269.925 65.82C269.9 66.504 269.862 67.1247 269.811 67.682C270.242 67.6313 270.698 67.606 271.179 67.606C271.66 67.5807 272.053 67.5553 272.357 67.53V70H265.745C265.694 69.6453 265.644 69.2907 265.593 68.936C265.568 68.5813 265.542 68.2393 265.517 67.91C264.732 68.6193 263.845 69.2527 262.857 69.81C261.894 70.342 260.818 70.608 259.627 70.608ZM274.953 67.986C275.688 67.986 276.207 67.834 276.511 67.53C276.815 67.2007 277.005 66.7447 277.081 66.162C277.157 65.5793 277.195 64.9207 277.195 64.186V57.08C277.195 56.6493 277.208 56.1807 277.233 55.674C277.259 55.142 277.297 54.5973 277.347 54.04C276.917 54.0653 276.448 54.0907 275.941 54.116C275.435 54.1413 275.017 54.1667 274.687 54.192V51.722C275.827 51.722 276.765 51.6713 277.499 51.57C278.259 51.4433 278.842 51.2913 279.247 51.114C279.678 50.9367 279.982 50.772 280.159 50.62H281.869V64.566C281.869 64.9713 281.857 65.4653 281.831 66.048C281.831 66.6053 281.793 67.15 281.717 67.682C282.123 67.6313 282.553 67.606 283.009 67.606C283.491 67.5807 283.883 67.568 284.187 67.568V70H274.953V67.986ZM279.323 47.352C278.589 47.352 277.968 47.086 277.461 46.554C276.955 45.9967 276.701 45.3253 276.701 44.54C276.701 43.7547 276.955 43.0833 277.461 42.526C277.993 41.9687 278.614 41.69 279.323 41.69C280.058 41.69 280.666 41.9687 281.147 42.526C281.654 43.0833 281.907 43.7547 281.907 44.54C281.907 45.3253 281.667 45.9967 281.185 46.554C280.704 47.086 280.083 47.352 279.323 47.352ZM286.259 67.986C286.994 67.986 287.513 67.834 287.817 67.53C288.147 67.2007 288.337 66.7447 288.387 66.162C288.463 65.5793 288.501 64.9207 288.501 64.186V47.77C288.501 47.3393 288.514 46.8707 288.539 46.364C288.565 45.832 288.603 45.2873 288.653 44.73C288.223 44.7553 287.754 44.7807 287.247 44.806C286.741 44.8313 286.31 44.8567 285.955 44.882V42.412C287.121 42.412 288.071 42.3613 288.805 42.26C289.565 42.1333 290.148 41.9813 290.553 41.804C290.984 41.6267 291.288 41.462 291.465 41.31H293.175L293.213 64.566C293.213 64.9713 293.201 65.4653 293.175 66.048C293.15 66.6053 293.099 67.15 293.023 67.682C293.454 67.6313 293.897 67.606 294.353 67.606C294.809 67.5807 295.189 67.568 295.493 67.568V70H286.259V67.986ZM305.747 70.608C304.227 70.608 302.871 70.2153 301.681 69.43C300.49 68.6447 299.553 67.53 298.869 66.086C298.21 64.642 297.881 62.9447 297.881 60.994C297.881 58.942 298.286 57.118 299.097 55.522C299.907 53.926 301.022 52.672 302.441 51.76C303.885 50.848 305.544 50.392 307.419 50.392C308.153 50.392 308.837 50.4807 309.471 50.658C310.129 50.81 310.699 50.9873 311.181 51.19V47.808C311.181 47.428 311.181 46.9593 311.181 46.402C311.206 45.8447 311.244 45.2873 311.295 44.73C310.889 44.7553 310.421 44.7807 309.889 44.806C309.382 44.8313 308.951 44.8567 308.597 44.882V42.412C309.762 42.412 310.712 42.3613 311.447 42.26C312.181 42.1333 312.751 41.9813 313.157 41.804C313.587 41.6267 313.891 41.462 314.069 41.31H315.817V64.566C315.817 64.946 315.804 65.4273 315.779 66.01C315.753 66.5673 315.715 67.1247 315.665 67.682C316.095 67.6313 316.539 67.606 316.995 67.606C317.476 67.5807 317.881 67.5553 318.211 67.53V70H311.599C311.548 69.696 311.497 69.392 311.447 69.088C311.421 68.7587 311.383 68.4547 311.333 68.176C310.547 69.012 309.686 69.62 308.749 70C307.811 70.4053 306.811 70.608 305.747 70.608ZM307.533 67.682C308.242 67.682 308.926 67.492 309.585 67.112C310.243 66.7067 310.775 66.2127 311.181 65.63C311.155 65.2753 311.143 64.9207 311.143 64.566C311.143 64.186 311.143 63.806 311.143 63.426L311.181 53.698C310.801 53.394 310.319 53.166 309.737 53.014C309.154 52.8367 308.559 52.748 307.951 52.748C306.76 52.7733 305.785 53.1533 305.025 53.888C304.29 54.5973 303.745 55.5347 303.391 56.7C303.061 57.8653 302.909 59.132 302.935 60.5C302.935 61.7413 303.099 62.9067 303.429 63.996C303.758 65.0853 304.252 65.972 304.911 66.656C305.595 67.34 306.469 67.682 307.533 67.682ZM341.709 70C341.633 69.62 341.582 69.3033 341.557 69.05C341.557 68.7713 341.544 68.4547 341.519 68.1C340.658 68.9613 339.733 69.5947 338.745 70C337.782 70.4053 336.782 70.608 335.743 70.608C334.02 70.608 332.69 70.1393 331.753 69.202C330.841 68.2647 330.385 67.112 330.385 65.744C330.385 64.528 330.714 63.502 331.373 62.666C332.032 61.8047 332.893 61.108 333.957 60.576C335.021 60.0187 336.199 59.6007 337.491 59.322C338.783 59.018 340.062 58.8533 341.329 58.828V56.738C341.329 56.0033 341.24 55.332 341.063 54.724C340.911 54.0907 340.62 53.5967 340.189 53.242C339.758 52.862 339.125 52.672 338.289 52.672C337.732 52.6973 337.162 52.824 336.579 53.052C336.022 53.2547 335.578 53.584 335.249 54.04C335.452 54.268 335.578 54.5213 335.629 54.8C335.68 55.0533 335.705 55.2813 335.705 55.484C335.705 55.94 335.528 56.4213 335.173 56.928C334.818 57.4093 334.248 57.6373 333.463 57.612C332.779 57.5867 332.247 57.346 331.867 56.89C331.512 56.434 331.335 55.8893 331.335 55.256C331.335 54.2933 331.677 53.4573 332.361 52.748C333.07 52.0133 334.02 51.4433 335.211 51.038C336.402 50.6073 337.732 50.392 339.201 50.392C341.38 50.392 343.052 50.962 344.217 52.102C345.382 53.242 345.952 55.066 345.927 57.574C345.927 58.4607 345.927 59.2713 345.927 60.006C345.927 60.7153 345.914 61.4373 345.889 62.172C345.889 62.8813 345.889 63.6793 345.889 64.566C345.889 64.946 345.876 65.4273 345.851 66.01C345.826 66.5673 345.788 67.1247 345.737 67.682C346.193 67.6313 346.649 67.606 347.105 67.606C347.586 67.5807 347.979 67.5553 348.283 67.53V70H341.709ZM341.291 61.07C340.531 61.1207 339.784 61.2473 339.049 61.45C338.314 61.6273 337.656 61.8807 337.073 62.21C336.49 62.5393 336.022 62.9573 335.667 63.464C335.338 63.9453 335.186 64.5027 335.211 65.136C335.236 65.9213 335.49 66.504 335.971 66.884C336.452 67.2387 337.01 67.416 337.643 67.416C338.378 67.416 339.036 67.264 339.619 66.96C340.227 66.656 340.784 66.2507 341.291 65.744C341.291 65.4907 341.291 65.2247 341.291 64.946C341.291 64.6673 341.291 64.3887 341.291 64.11C341.291 63.7553 341.291 63.312 341.291 62.78C341.291 62.248 341.291 61.678 341.291 61.07ZM381.046 51.912C380.742 49.708 379.995 48.036 378.804 46.896C377.613 45.7307 376.068 45.148 374.168 45.148C372.825 45.148 371.622 45.452 370.558 46.06C369.519 46.6427 368.633 47.4533 367.898 48.492C367.189 49.5053 366.644 50.696 366.264 52.064C365.884 53.4067 365.694 54.8507 365.694 56.396C365.694 58.6507 366.049 60.6393 366.758 62.362C367.493 64.0847 368.506 65.44 369.798 66.428C371.115 67.416 372.648 67.91 374.396 67.91C376.017 67.91 377.613 67.5173 379.184 66.732C380.78 65.9213 382.097 64.7813 383.136 63.312L384.694 64.718C383.503 66.3393 382.237 67.5807 380.894 68.442C379.551 69.278 378.234 69.848 376.942 70.152C375.675 70.456 374.523 70.608 373.484 70.608C371.533 70.608 369.76 70.266 368.164 69.582C366.593 68.8727 365.225 67.91 364.06 66.694C362.92 65.4527 362.033 64.0213 361.4 62.4C360.792 60.7533 360.488 58.98 360.488 57.08C360.488 55.332 360.754 53.6093 361.286 51.912C361.843 50.2147 362.667 48.682 363.756 47.314C364.871 45.946 366.264 44.8567 367.936 44.046C369.608 43.21 371.546 42.792 373.75 42.792C374.865 42.792 376.03 42.9693 377.246 43.324C378.462 43.6533 379.602 44.1473 380.666 44.806L380.514 43.058H383.136V51.912H381.046ZM398.54 67.986C399.275 67.986 399.794 67.834 400.098 67.53C400.402 67.2007 400.592 66.7447 400.668 66.162C400.744 65.5793 400.782 64.9207 400.782 64.186V58.79C400.757 56.966 400.466 55.6107 399.908 54.724C399.351 53.8373 398.477 53.394 397.286 53.394C396.552 53.394 395.817 53.5587 395.082 53.888C394.373 54.2173 393.79 54.6227 393.334 55.104V64.566C393.334 64.9713 393.322 65.4653 393.296 66.048C393.271 66.6053 393.22 67.15 393.144 67.682C393.575 67.6313 394.018 67.606 394.474 67.606C394.93 67.5807 395.31 67.568 395.614 67.568V70H386.38V67.986C387.115 67.986 387.634 67.834 387.938 67.53C388.268 67.2007 388.458 66.7447 388.508 66.162C388.584 65.5793 388.622 64.9207 388.622 64.186V47.77C388.622 47.3393 388.635 46.8707 388.66 46.364C388.686 45.832 388.724 45.2873 388.774 44.73C388.344 44.7553 387.875 44.7807 387.368 44.806C386.862 44.8313 386.444 44.8567 386.114 44.882V42.412C387.28 42.412 388.23 42.3613 388.964 42.26C389.699 42.1333 390.269 41.9813 390.674 41.804C391.105 41.6267 391.409 41.462 391.586 41.31H393.334V52.634C393.841 52.2033 394.424 51.8233 395.082 51.494C395.766 51.1647 396.463 50.8987 397.172 50.696C397.882 50.4933 398.528 50.392 399.11 50.392C401.39 50.392 403.012 51.0633 403.974 52.406C404.962 53.7487 405.456 55.8893 405.456 58.828L405.494 64.566C405.494 64.9713 405.482 65.4653 405.456 66.048C405.431 66.6053 405.393 67.15 405.342 67.682C405.748 67.6313 406.166 67.606 406.596 67.606C407.052 67.5807 407.445 67.568 407.774 67.568V70H398.54V67.986ZM421.16 70C421.084 69.62 421.034 69.3033 421.008 69.05C421.008 68.7713 420.996 68.4547 420.97 68.1C420.109 68.9613 419.184 69.5947 418.196 70C417.234 70.4053 416.233 70.608 415.194 70.608C413.472 70.608 412.142 70.1393 411.204 69.202C410.292 68.2647 409.836 67.112 409.836 65.744C409.836 64.528 410.166 63.502 410.824 62.666C411.483 61.8047 412.344 61.108 413.408 60.576C414.472 60.0187 415.65 59.6007 416.942 59.322C418.234 59.018 419.514 58.8533 420.78 58.828V56.738C420.78 56.0033 420.692 55.332 420.514 54.724C420.362 54.0907 420.071 53.5967 419.64 53.242C419.21 52.862 418.576 52.672 417.74 52.672C417.183 52.6973 416.613 52.824 416.03 53.052C415.473 53.2547 415.03 53.584 414.7 54.04C414.903 54.268 415.03 54.5213 415.08 54.8C415.131 55.0533 415.156 55.2813 415.156 55.484C415.156 55.94 414.979 56.4213 414.624 56.928C414.27 57.4093 413.7 57.6373 412.914 57.612C412.23 57.5867 411.698 57.346 411.318 56.89C410.964 56.434 410.786 55.8893 410.786 55.256C410.786 54.2933 411.128 53.4573 411.812 52.748C412.522 52.0133 413.472 51.4433 414.662 51.038C415.853 50.6073 417.183 50.392 418.652 50.392C420.831 50.392 422.503 50.962 423.668 52.102C424.834 53.242 425.404 55.066 425.378 57.574C425.378 58.4607 425.378 59.2713 425.378 60.006C425.378 60.7153 425.366 61.4373 425.34 62.172C425.34 62.8813 425.34 63.6793 425.34 64.566C425.34 64.946 425.328 65.4273 425.302 66.01C425.277 66.5673 425.239 67.1247 425.188 67.682C425.644 67.6313 426.1 67.606 426.556 67.606C427.038 67.5807 427.43 67.5553 427.734 67.53V70H421.16ZM420.742 61.07C419.982 61.1207 419.235 61.2473 418.5 61.45C417.766 61.6273 417.107 61.8807 416.524 62.21C415.942 62.5393 415.473 62.9573 415.118 63.464C414.789 63.9453 414.637 64.5027 414.662 65.136C414.688 65.9213 414.941 66.504 415.422 66.884C415.904 67.2387 416.461 67.416 417.094 67.416C417.829 67.416 418.488 67.264 419.07 66.96C419.678 66.656 420.236 66.2507 420.742 65.744C420.742 65.4907 420.742 65.2247 420.742 64.946C420.742 64.6673 420.742 64.3887 420.742 64.11C420.742 63.7553 420.742 63.312 420.742 62.78C420.742 62.248 420.742 61.678 420.742 61.07ZM430.071 70V67.986C430.805 67.986 431.325 67.834 431.629 67.53C431.933 67.2007 432.123 66.7447 432.199 66.162C432.275 65.5793 432.313 64.9207 432.313 64.186V57.042C432.313 56.586 432.325 56.1047 432.351 55.598C432.376 55.0913 432.414 54.572 432.465 54.04C432.034 54.0653 431.565 54.0907 431.059 54.116C430.552 54.1413 430.134 54.1667 429.805 54.192V51.722C430.945 51.722 431.882 51.6713 432.617 51.57C433.351 51.4433 433.921 51.2913 434.327 51.114C434.732 50.9367 435.023 50.772 435.201 50.62H436.797C436.847 50.8733 436.873 51.19 436.873 51.57C436.898 51.9247 436.923 52.254 436.949 52.558C437.785 51.8993 438.697 51.38 439.685 51C440.673 50.5947 441.635 50.392 442.573 50.392C443.763 50.392 444.751 50.6073 445.537 51.038C446.347 51.4687 446.981 52.0893 447.437 52.9C448.323 52.1653 449.324 51.57 450.439 51.114C451.553 50.6327 452.63 50.392 453.669 50.392C455.771 50.392 457.342 51.0127 458.381 52.254C459.445 53.47 459.964 55.5473 459.939 58.486V64.566C459.939 64.9713 459.926 65.4653 459.901 66.048C459.875 66.6053 459.837 67.15 459.787 67.682C460.192 67.6313 460.623 67.606 461.079 67.606C461.535 67.5807 461.915 67.568 462.219 67.568V70H453.213V67.986C453.871 67.986 454.34 67.834 454.619 67.53C454.897 67.2007 455.062 66.7447 455.113 66.162C455.189 65.5793 455.227 64.9207 455.227 64.186V58.524C455.227 56.7 454.935 55.3953 454.353 54.61C453.77 53.8247 452.947 53.432 451.883 53.432C451.173 53.4067 450.489 53.546 449.831 53.85C449.197 54.1287 448.64 54.4707 448.159 54.876C448.285 55.3573 448.374 55.8767 448.425 56.434C448.475 56.9913 448.501 57.5867 448.501 58.22C448.501 59.284 448.501 60.348 448.501 61.412C448.501 62.4507 448.488 63.502 448.463 64.566C448.463 64.9713 448.45 65.4653 448.425 66.048C448.425 66.6053 448.387 67.15 448.311 67.682C448.716 67.6313 449.147 67.606 449.603 67.606C450.059 67.5807 450.451 67.568 450.781 67.568V70H441.661V67.986C442.345 67.986 442.826 67.834 443.105 67.53C443.409 67.2007 443.599 66.7447 443.675 66.162C443.751 65.5793 443.789 64.9207 443.789 64.186V58.448C443.789 56.624 443.51 55.332 442.953 54.572C442.421 53.7867 441.623 53.3813 440.559 53.356C439.875 53.356 439.216 53.508 438.583 53.812C437.975 54.116 437.443 54.4833 436.987 54.914C436.987 55.2433 436.987 55.5727 436.987 55.902C436.987 56.206 436.987 56.5227 436.987 56.852V64.566C436.987 64.9713 436.974 65.4653 436.949 66.048C436.949 66.6053 436.911 67.15 436.835 67.682C437.24 67.6313 437.645 67.606 438.051 67.606C438.481 67.5807 438.849 67.568 439.153 67.568V70H430.071ZM464.202 79.69V77.676C464.937 77.676 465.456 77.5113 465.76 77.182C466.09 76.878 466.292 76.4347 466.368 75.852C466.444 75.2693 466.482 74.6107 466.482 73.876L466.52 57.042C466.52 56.586 466.52 56.1047 466.52 55.598C466.546 55.0913 466.596 54.572 466.672 54.04C466.242 54.0653 465.76 54.0907 465.228 54.116C464.722 54.1413 464.304 54.1667 463.974 54.192V51.722C465.14 51.722 466.077 51.6713 466.786 51.57C467.521 51.4433 468.078 51.2913 468.458 51.114C468.864 50.9367 469.155 50.772 469.332 50.62H470.966C471.017 50.8733 471.055 51.1773 471.08 51.532C471.106 51.8867 471.131 52.216 471.156 52.52C471.992 51.7853 472.879 51.2533 473.816 50.924C474.754 50.5693 475.653 50.392 476.514 50.392C478.034 50.392 479.39 50.7847 480.58 51.57C481.771 52.33 482.708 53.432 483.392 54.876C484.076 56.2947 484.418 57.9793 484.418 59.93C484.418 62.0073 484 63.8567 483.164 65.478C482.354 67.074 481.239 68.328 479.82 69.24C478.402 70.152 476.768 70.608 474.918 70.608C474.158 70.608 473.474 70.5193 472.866 70.342C472.258 70.19 471.688 69.9873 471.156 69.734V74.256C471.156 74.6613 471.144 75.1427 471.118 75.7C471.118 76.2827 471.08 76.84 471.004 77.372C471.41 77.3213 471.84 77.2833 472.296 77.258C472.752 77.258 473.132 77.258 473.436 77.258V79.69H464.202ZM474.5 68.214C475.666 68.1887 476.603 67.834 477.312 67.15C478.047 66.4407 478.579 65.5033 478.908 64.338C479.238 63.1727 479.402 61.906 479.402 60.538C479.402 59.2967 479.238 58.1187 478.908 57.004C478.604 55.8893 478.11 54.99 477.426 54.306C476.742 53.622 475.83 53.28 474.69 53.28C473.981 53.3053 473.31 53.4827 472.676 53.812C472.068 54.1413 471.562 54.572 471.156 55.104C471.156 55.6613 471.156 56.2313 471.156 56.814C471.156 57.3967 471.156 58.0173 471.156 58.676C471.156 59.3347 471.156 60.082 471.156 60.918C471.156 61.7287 471.156 62.6533 471.156 63.692C471.156 64.7307 471.156 65.9213 471.156 67.264C471.562 67.5427 472.056 67.7707 472.638 67.948C473.221 68.1253 473.842 68.214 474.5 68.214ZM487.367 67.986C488.102 67.986 488.621 67.834 488.925 67.53C489.229 67.2007 489.419 66.7447 489.495 66.162C489.571 65.5793 489.609 64.9207 489.609 64.186V57.08C489.609 56.6493 489.622 56.1807 489.647 55.674C489.673 55.142 489.711 54.5973 489.761 54.04C489.331 54.0653 488.862 54.0907 488.355 54.116C487.849 54.1413 487.431 54.1667 487.101 54.192V51.722C488.241 51.722 489.179 51.6713 489.913 51.57C490.673 51.4433 491.256 51.2913 491.661 51.114C492.092 50.9367 492.396 50.772 492.573 50.62H494.283V64.566C494.283 64.9713 494.271 65.4653 494.245 66.048C494.245 66.6053 494.207 67.15 494.131 67.682C494.537 67.6313 494.967 67.606 495.423 67.606C495.905 67.5807 496.297 67.568 496.601 67.568V70H487.367V67.986ZM491.737 47.352C491.003 47.352 490.382 47.086 489.875 46.554C489.369 45.9967 489.115 45.3253 489.115 44.54C489.115 43.7547 489.369 43.0833 489.875 42.526C490.407 41.9687 491.028 41.69 491.737 41.69C492.472 41.69 493.08 41.9687 493.561 42.526C494.068 43.0833 494.321 43.7547 494.321 44.54C494.321 45.3253 494.081 45.9967 493.599 46.554C493.118 47.086 492.497 47.352 491.737 47.352ZM508.553 70.608C506.755 70.608 505.121 70.2153 503.651 69.43C502.182 68.6193 501.017 67.492 500.155 66.048C499.319 64.5787 498.901 62.8687 498.901 60.918C498.901 58.866 499.332 57.042 500.193 55.446C501.055 53.85 502.207 52.6087 503.651 51.722C505.121 50.8353 506.729 50.392 508.477 50.392C510.276 50.392 511.897 50.7973 513.341 51.608C514.785 52.4187 515.925 53.546 516.761 54.99C517.623 56.434 518.053 58.144 518.053 60.12C518.053 62.1973 517.635 64.034 516.799 65.63C515.989 67.2007 514.861 68.4293 513.417 69.316C511.999 70.1773 510.377 70.608 508.553 70.608ZM508.743 68.29C509.883 68.29 510.757 67.9353 511.365 67.226C511.973 66.5167 512.391 65.6173 512.619 64.528C512.873 63.4133 512.999 62.2733 512.999 61.108C512.999 60.12 512.911 59.1193 512.733 58.106C512.581 57.0927 512.328 56.1807 511.973 55.37C511.619 54.534 511.15 53.8753 510.567 53.394C509.985 52.8873 509.275 52.634 508.439 52.634C507.325 52.6593 506.438 53.0267 505.779 53.736C505.121 54.4453 504.639 55.3447 504.335 56.434C504.057 57.5233 503.917 58.676 503.917 59.892C503.917 61.26 504.082 62.6027 504.411 63.92C504.741 65.212 505.26 66.276 505.969 67.112C506.679 67.9227 507.603 68.3153 508.743 68.29ZM520.951 70V67.986C521.686 67.986 522.205 67.834 522.509 67.53C522.813 67.2007 523.003 66.7447 523.079 66.162C523.155 65.5793 523.193 64.9207 523.193 64.186V57.042C523.193 56.586 523.206 56.1047 523.231 55.598C523.257 55.0913 523.295 54.572 523.345 54.04C522.94 54.0653 522.471 54.0907 521.939 54.116C521.433 54.1413 521.015 54.1667 520.685 54.192V51.722C521.825 51.722 522.763 51.6713 523.497 51.57C524.232 51.4433 524.802 51.2913 525.207 51.114C525.613 50.9367 525.904 50.772 526.081 50.62H527.677C527.728 50.8987 527.753 51.1267 527.753 51.304C527.753 51.4813 527.766 51.6713 527.791 51.874C527.817 52.0513 527.855 52.3173 527.905 52.672C528.412 52.2413 528.995 51.8613 529.653 51.532C530.337 51.1773 531.021 50.8987 531.705 50.696C532.389 50.4933 533.023 50.392 533.605 50.392C535.885 50.392 537.519 51.0633 538.507 52.406C539.495 53.7487 539.989 55.8893 539.989 58.828V64.566C539.989 64.9713 539.977 65.4653 539.951 66.048C539.951 66.6053 539.913 67.15 539.837 67.682C540.268 67.6313 540.711 67.606 541.167 67.606C541.623 67.5807 542.003 67.568 542.307 67.568V70H533.073V67.986C533.808 67.986 534.327 67.834 534.631 67.53C534.961 67.2007 535.163 66.7447 535.239 66.162C535.315 65.5793 535.353 64.9207 535.353 64.186L535.315 58.79C535.315 56.966 535.037 55.6107 534.479 54.724C533.947 53.812 533.061 53.356 531.819 53.356C531.085 53.3813 530.363 53.5587 529.653 53.888C528.944 54.2173 528.349 54.6353 527.867 55.142C527.893 55.446 527.905 55.7627 527.905 56.092C527.905 56.4213 527.905 56.7507 527.905 57.08L527.867 64.566C527.867 64.9713 527.855 65.4653 527.829 66.048C527.829 66.6053 527.791 67.15 527.715 67.682C528.121 67.6313 528.551 67.606 529.007 67.606C529.489 67.5807 529.881 67.568 530.185 67.568V70H520.951Z" fill="white"/>
<path d="M291.753 119.266L284.951 98.898C284.647 97.9607 284.406 97.1627 284.229 96.504C284.051 95.82 283.937 95.25 283.887 94.794C283.456 94.8193 283.051 94.8447 282.671 94.87C282.316 94.87 281.974 94.8827 281.645 94.908V92.4H292.209V94.49C291.094 94.49 290.334 94.718 289.929 95.174C289.549 95.63 289.536 96.4913 289.891 97.758C290.271 99.278 290.676 100.747 291.107 102.166C291.537 103.585 291.955 105.029 292.361 106.498C292.639 107.461 292.893 108.36 293.121 109.196C293.374 110.007 293.64 111.02 293.919 112.236H293.995C294.096 111.856 294.235 111.337 294.413 110.678C294.59 110.019 294.78 109.335 294.983 108.626C295.211 107.917 295.401 107.271 295.553 106.688C295.73 106.08 295.857 105.637 295.933 105.358C296.439 103.737 296.933 102.153 297.415 100.608C297.921 99.0373 298.39 97.5553 298.821 96.162C299.277 94.7433 299.669 93.4767 299.999 92.362H302.659C302.988 93.426 303.343 94.566 303.723 95.782C304.103 96.9727 304.495 98.2013 304.901 99.468C305.306 100.709 305.699 101.938 306.079 103.154C306.459 104.345 306.813 105.447 307.143 106.46C307.447 107.423 307.725 108.398 307.979 109.386C308.257 110.374 308.523 111.375 308.777 112.388H308.853C309.081 111.603 309.309 110.779 309.537 109.918C309.79 109.057 310.056 108.17 310.335 107.258C310.664 106.194 310.955 105.231 311.209 104.37C311.462 103.509 311.69 102.723 311.893 102.014C312.121 101.279 312.323 100.595 312.501 99.962C312.678 99.3033 312.855 98.6573 313.033 98.024C313.185 97.4667 313.375 96.8967 313.603 96.314C313.856 95.706 314.147 95.1993 314.477 94.794C314.046 94.8193 313.527 94.8447 312.919 94.87C312.336 94.87 311.867 94.8827 311.513 94.908V92.4H319.797V94.49C319.138 94.5407 318.555 94.7053 318.049 94.984C317.567 95.2373 317.124 95.6933 316.719 96.352C316.313 96.9853 315.921 97.8973 315.541 99.088C314.477 102.483 313.413 105.865 312.349 109.234C311.285 112.578 310.208 115.922 309.119 119.266H306.497L301.557 104.712C301.278 103.825 301.025 102.964 300.797 102.128C300.594 101.292 300.379 100.481 300.151 99.696C299.999 100.481 299.821 101.241 299.619 101.976C299.441 102.711 299.239 103.471 299.011 104.256L294.299 119.266H291.753ZM320.34 116.986C321.075 116.986 321.594 116.834 321.898 116.53C322.202 116.201 322.392 115.745 322.468 115.162C322.544 114.579 322.582 113.921 322.582 113.186V106.08C322.582 105.649 322.595 105.181 322.62 104.674C322.645 104.142 322.683 103.597 322.734 103.04C322.303 103.065 321.835 103.091 321.328 103.116C320.821 103.141 320.403 103.167 320.074 103.192V100.722C321.214 100.722 322.151 100.671 322.886 100.57C323.646 100.443 324.229 100.291 324.634 100.114C325.065 99.9367 325.369 99.772 325.546 99.62H327.256V113.566C327.256 113.971 327.243 114.465 327.218 115.048C327.218 115.605 327.18 116.15 327.104 116.682C327.509 116.631 327.94 116.606 328.396 116.606C328.877 116.581 329.27 116.568 329.574 116.568V119H320.34V116.986ZM324.71 96.352C323.975 96.352 323.355 96.086 322.848 95.554C322.341 94.9967 322.088 94.3253 322.088 93.54C322.088 92.7547 322.341 92.0833 322.848 91.526C323.38 90.9687 324.001 90.69 324.71 90.69C325.445 90.69 326.053 90.9687 326.534 91.526C327.041 92.0833 327.294 92.7547 327.294 93.54C327.294 94.3253 327.053 94.9967 326.572 95.554C326.091 96.086 325.47 96.352 324.71 96.352ZM332.178 119V116.986C332.913 116.986 333.432 116.834 333.736 116.53C334.04 116.201 334.23 115.745 334.306 115.162C334.382 114.579 334.42 113.921 334.42 113.186V106.042C334.42 105.586 334.433 105.105 334.458 104.598C334.483 104.091 334.521 103.572 334.572 103.04C334.141 103.065 333.673 103.091 333.166 103.116C332.659 103.141 332.241 103.167 331.912 103.192V100.722C333.052 100.722 333.989 100.671 334.724 100.57C335.459 100.443 336.029 100.291 336.434 100.114C336.839 99.9367 337.131 99.772 337.308 99.62H338.904C338.955 99.8733 338.98 100.19 338.98 100.57C339.005 100.925 339.031 101.254 339.056 101.558C339.892 100.899 340.804 100.38 341.792 100C342.78 99.5947 343.743 99.392 344.68 99.392C345.871 99.392 346.859 99.6073 347.644 100.038C348.455 100.469 349.088 101.089 349.544 101.9C350.431 101.165 351.431 100.57 352.546 100.114C353.661 99.6327 354.737 99.392 355.776 99.392C357.879 99.392 359.449 100.013 360.488 101.254C361.552 102.47 362.071 104.547 362.046 107.486V113.566C362.046 113.971 362.033 114.465 362.008 115.048C361.983 115.605 361.945 116.15 361.894 116.682C362.299 116.631 362.73 116.606 363.186 116.606C363.642 116.581 364.022 116.568 364.326 116.568V119H355.32V116.986C355.979 116.986 356.447 116.834 356.726 116.53C357.005 116.201 357.169 115.745 357.22 115.162C357.296 114.579 357.334 113.921 357.334 113.186V107.524C357.334 105.7 357.043 104.395 356.46 103.61C355.877 102.825 355.054 102.432 353.99 102.432C353.281 102.407 352.597 102.546 351.938 102.85C351.305 103.129 350.747 103.471 350.266 103.876C350.393 104.357 350.481 104.877 350.532 105.434C350.583 105.991 350.608 106.587 350.608 107.22C350.608 108.284 350.608 109.348 350.608 110.412C350.608 111.451 350.595 112.502 350.57 113.566C350.57 113.971 350.557 114.465 350.532 115.048C350.532 115.605 350.494 116.15 350.418 116.682C350.823 116.631 351.254 116.606 351.71 116.606C352.166 116.581 352.559 116.568 352.888 116.568V119H343.768V116.986C344.452 116.986 344.933 116.834 345.212 116.53C345.516 116.201 345.706 115.745 345.782 115.162C345.858 114.579 345.896 113.921 345.896 113.186V107.448C345.896 105.624 345.617 104.332 345.06 103.572C344.528 102.787 343.73 102.381 342.666 102.356C341.982 102.356 341.323 102.508 340.69 102.812C340.082 103.116 339.55 103.483 339.094 103.914C339.094 104.243 339.094 104.573 339.094 104.902C339.094 105.206 339.094 105.523 339.094 105.852V113.566C339.094 113.971 339.081 114.465 339.056 115.048C339.056 115.605 339.018 116.15 338.942 116.682C339.347 116.631 339.753 116.606 340.158 116.606C340.589 116.581 340.956 116.568 341.26 116.568V119H332.178ZM367.751 96.77C367.751 96.3393 367.751 95.8707 367.751 95.364C367.776 94.832 367.814 94.2873 367.865 93.73C367.46 93.7553 366.991 93.7807 366.459 93.806C365.952 93.8313 365.534 93.8567 365.205 93.882V91.412C366.37 91.412 367.32 91.3613 368.055 91.26C368.79 91.1333 369.36 90.9813 369.765 90.804C370.196 90.6267 370.5 90.462 370.677 90.31H372.425V101.52C373.236 100.76 374.097 100.215 375.009 99.886C375.921 99.5567 376.833 99.392 377.745 99.392C379.316 99.392 380.696 99.7847 381.887 100.57C383.103 101.355 384.053 102.47 384.737 103.914C385.421 105.358 385.763 107.055 385.763 109.006C385.763 111.083 385.358 112.92 384.547 114.516C383.736 116.112 382.622 117.366 381.203 118.278C379.784 119.165 378.15 119.608 376.301 119.608C375.566 119.608 374.667 119.456 373.603 119.152C372.564 118.848 371.614 118.24 370.753 117.328L369.689 119H367.751V96.77ZM372.425 113.224C372.425 114.237 372.59 115.035 372.919 115.618C373.248 116.201 373.666 116.619 374.173 116.872C374.705 117.1 375.237 117.227 375.769 117.252C376.934 117.252 377.872 116.91 378.581 116.226C379.316 115.542 379.848 114.63 380.177 113.49C380.532 112.325 380.709 111.071 380.709 109.728C380.709 108.36 380.544 107.119 380.215 106.004C379.886 104.864 379.379 103.965 378.695 103.306C378.011 102.622 377.112 102.28 375.997 102.28C375.313 102.305 374.654 102.483 374.021 102.812C373.388 103.141 372.856 103.572 372.425 104.104V113.224ZM388.052 116.986C388.787 116.986 389.306 116.834 389.61 116.53C389.94 116.201 390.13 115.745 390.18 115.162C390.256 114.579 390.294 113.921 390.294 113.186V96.77C390.294 96.3393 390.307 95.8707 390.332 95.364C390.358 94.832 390.396 94.2873 390.446 93.73C390.016 93.7553 389.547 93.7807 389.04 93.806C388.534 93.8313 388.103 93.8567 387.748 93.882V91.412C388.914 91.412 389.864 91.3613 390.598 91.26C391.358 91.1333 391.941 90.9813 392.346 90.804C392.777 90.6267 393.081 90.462 393.258 90.31H394.968L395.006 113.566C395.006 113.971 394.994 114.465 394.968 115.048C394.943 115.605 394.892 116.15 394.816 116.682C395.247 116.631 395.69 116.606 396.146 116.606C396.602 116.581 396.982 116.568 397.286 116.568V119H388.052V116.986ZM409.022 119.608C407.198 119.608 405.576 119.203 404.158 118.392C402.739 117.556 401.637 116.391 400.852 114.896C400.066 113.376 399.674 111.59 399.674 109.538C399.674 107.765 400.066 106.105 400.852 104.56C401.637 103.015 402.739 101.773 404.158 100.836C405.602 99.8733 407.274 99.392 409.174 99.392C410.238 99.392 411.264 99.544 412.252 99.848C413.24 100.152 414.126 100.659 414.912 101.368C415.697 102.077 416.318 103.015 416.774 104.18C417.255 105.345 417.483 106.764 417.458 108.436L404.69 108.664C404.69 110.235 404.867 111.628 405.222 112.844C405.602 114.035 406.21 114.985 407.046 115.694C407.882 116.378 408.984 116.72 410.352 116.72C410.96 116.72 411.606 116.619 412.29 116.416C412.999 116.188 413.696 115.859 414.38 115.428C415.064 114.972 415.672 114.415 416.204 113.756L417.648 115.086C416.812 116.302 415.887 117.239 414.874 117.898C413.86 118.557 412.847 119 411.834 119.228C410.82 119.481 409.883 119.608 409.022 119.608ZM404.88 106.384H412.784C412.758 105.371 412.606 104.522 412.328 103.838C412.074 103.129 411.694 102.597 411.188 102.242C410.681 101.862 410.06 101.672 409.326 101.672C408.084 101.672 407.084 102.09 406.324 102.926C405.589 103.737 405.108 104.889 404.88 106.384ZM427.95 119.608C426.43 119.608 425.075 119.215 423.884 118.43C422.693 117.645 421.756 116.53 421.072 115.086C420.413 113.642 420.084 111.945 420.084 109.994C420.084 107.942 420.489 106.118 421.3 104.522C422.111 102.926 423.225 101.672 424.644 100.76C426.088 99.848 427.747 99.392 429.622 99.392C430.357 99.392 431.041 99.4807 431.674 99.658C432.333 99.81 432.903 99.9873 433.384 100.19V96.808C433.384 96.428 433.384 95.9593 433.384 95.402C433.409 94.8447 433.447 94.2873 433.498 93.73C433.093 93.7553 432.624 93.7807 432.092 93.806C431.585 93.8313 431.155 93.8567 430.8 93.882V91.412C431.965 91.412 432.915 91.3613 433.65 91.26C434.385 91.1333 434.955 90.9813 435.36 90.804C435.791 90.6267 436.095 90.462 436.272 90.31H438.02V113.566C438.02 113.946 438.007 114.427 437.982 115.01C437.957 115.567 437.919 116.125 437.868 116.682C438.299 116.631 438.742 116.606 439.198 116.606C439.679 116.581 440.085 116.555 440.414 116.53V119H433.802C433.751 118.696 433.701 118.392 433.65 118.088C433.625 117.759 433.587 117.455 433.536 117.176C432.751 118.012 431.889 118.62 430.952 119C430.015 119.405 429.014 119.608 427.95 119.608ZM429.736 116.682C430.445 116.682 431.129 116.492 431.788 116.112C432.447 115.707 432.979 115.213 433.384 114.63C433.359 114.275 433.346 113.921 433.346 113.566C433.346 113.186 433.346 112.806 433.346 112.426L433.384 102.698C433.004 102.394 432.523 102.166 431.94 102.014C431.357 101.837 430.762 101.748 430.154 101.748C428.963 101.773 427.988 102.153 427.228 102.888C426.493 103.597 425.949 104.535 425.594 105.7C425.265 106.865 425.113 108.132 425.138 109.5C425.138 110.741 425.303 111.907 425.632 112.996C425.961 114.085 426.455 114.972 427.114 115.656C427.798 116.34 428.672 116.682 429.736 116.682ZM452.372 119.608C450.573 119.608 448.939 119.215 447.47 118.43C446 117.619 444.835 116.492 443.974 115.048C443.138 113.579 442.72 111.869 442.72 109.918C442.72 107.866 443.15 106.042 444.012 104.446C444.873 102.85 446.026 101.609 447.47 100.722C448.939 99.8353 450.548 99.392 452.296 99.392C454.094 99.392 455.716 99.7973 457.16 100.608C458.604 101.419 459.744 102.546 460.58 103.99C461.441 105.434 461.872 107.144 461.872 109.12C461.872 111.197 461.454 113.034 460.618 114.63C459.807 116.201 458.68 117.429 457.236 118.316C455.817 119.177 454.196 119.608 452.372 119.608ZM452.562 117.29C453.702 117.29 454.576 116.935 455.184 116.226C455.792 115.517 456.21 114.617 456.438 113.528C456.691 112.413 456.818 111.273 456.818 110.108C456.818 109.12 456.729 108.119 456.552 107.106C456.4 106.093 456.146 105.181 455.792 104.37C455.437 103.534 454.968 102.875 454.386 102.394C453.803 101.887 453.094 101.634 452.258 101.634C451.143 101.659 450.256 102.027 449.598 102.736C448.939 103.445 448.458 104.345 448.154 105.434C447.875 106.523 447.736 107.676 447.736 108.892C447.736 110.26 447.9 111.603 448.23 112.92C448.559 114.212 449.078 115.276 449.788 116.112C450.497 116.923 451.422 117.315 452.562 117.29ZM464.77 119V116.986C465.504 116.986 466.024 116.834 466.328 116.53C466.632 116.201 466.822 115.745 466.898 115.162C466.974 114.579 467.012 113.921 467.012 113.186V106.042C467.012 105.586 467.024 105.105 467.05 104.598C467.075 104.091 467.113 103.572 467.164 103.04C466.758 103.065 466.29 103.091 465.758 103.116C465.251 103.141 464.833 103.167 464.504 103.192V100.722C465.644 100.722 466.581 100.671 467.316 100.57C468.05 100.443 468.62 100.291 469.026 100.114C469.431 99.9367 469.722 99.772 469.9 99.62H471.496C471.546 99.8987 471.572 100.127 471.572 100.304C471.572 100.481 471.584 100.671 471.61 100.874C471.635 101.051 471.673 101.317 471.724 101.672C472.23 101.241 472.813 100.861 473.472 100.532C474.156 100.177 474.84 99.8987 475.524 99.696C476.208 99.4933 476.841 99.392 477.424 99.392C479.704 99.392 481.338 100.063 482.326 101.406C483.314 102.749 483.808 104.889 483.808 107.828V113.566C483.808 113.971 483.795 114.465 483.77 115.048C483.77 115.605 483.732 116.15 483.656 116.682C484.086 116.631 484.53 116.606 484.986 116.606C485.442 116.581 485.822 116.568 486.126 116.568V119H476.892V116.986C477.626 116.986 478.146 116.834 478.45 116.53C478.779 116.201 478.982 115.745 479.058 115.162C479.134 114.579 479.172 113.921 479.172 113.186L479.134 107.79C479.134 105.966 478.855 104.611 478.298 103.724C477.766 102.812 476.879 102.356 475.638 102.356C474.903 102.381 474.181 102.559 473.472 102.888C472.762 103.217 472.167 103.635 471.686 104.142C471.711 104.446 471.724 104.763 471.724 105.092C471.724 105.421 471.724 105.751 471.724 106.08L471.686 113.566C471.686 113.971 471.673 114.465 471.648 115.048C471.648 115.605 471.61 116.15 471.534 116.682C471.939 116.631 472.37 116.606 472.826 116.606C473.307 116.581 473.7 116.568 474.004 116.568V119H464.77Z" fill="white"/>
</g>
<defs>
<clipPath id="clip0_3473_135">
<rect width="768" height="200" fill="white"/>
</clipPath>
<clipPath id="clip1_3473_135">
<rect x="500.5" y="124.283" width="61.0435" height="61.0435" rx="30.5217" fill="white"/>
</clipPath>
</defs>
</svg>
