<svg xmlns="http://www.w3.org/2000/svg" width="90" height="90" viewBox="0 0 90 90" fill="none">
<path d="M30.3261 15.6522C30.3261 23.2161 24.1944 29.3478 16.6305 29.3478C9.06656 29.3478 2.93481 23.2161 2.93481 15.6522C2.93481 8.08829 9.06656 1.95654 16.6305 1.95654C24.1944 1.95654 30.3261 8.08829 30.3261 15.6522Z" fill="#926725"/>
<path d="M26.2459 15.6522C26.2459 10.342 21.9407 6.03677 16.6305 6.03677C11.3203 6.03677 7.01504 10.342 7.01504 15.6522C7.01504 20.9624 11.3203 25.2676 16.6305 25.2676V29.3478C9.06656 29.3478 2.93481 23.2161 2.93481 15.6522C2.93481 8.08829 9.06656 1.95654 16.6305 1.95654C24.1944 1.95654 30.3261 8.08829 30.3261 15.6522C30.3261 23.2161 24.1944 29.3478 16.6305 29.3478V25.2676C21.9407 25.2676 26.2459 20.9624 26.2459 15.6522Z" fill="#926725"/>
<path d="M30.3261 13.6957C30.3261 21.2596 24.1944 27.3913 16.6305 27.3913C9.06656 27.3913 2.93481 21.2596 2.93481 13.6957C2.93481 6.13175 9.06656 0 16.6305 0C24.1944 0 30.3261 6.13175 30.3261 13.6957Z" fill="#FEF7EC"/>
<path d="M26.2459 13.6957C26.2459 8.38542 21.9407 4.08023 16.6305 4.08023C11.3203 4.08023 7.01504 8.38542 7.01504 13.6957C7.01504 19.0058 11.3203 23.3111 16.6305 23.3111V27.3913C9.06656 27.3913 2.93481 21.2596 2.93481 13.6957C2.93481 6.13175 9.06656 0 16.6305 0C24.1944 0 30.3261 6.13175 30.3261 13.6957C30.3261 21.2596 24.1944 27.3913 16.6305 27.3913V23.3111C21.9407 23.3111 26.2459 19.0058 26.2459 13.6957Z" fill="#926725"/>
<path d="M58.6956 15.6522C58.6956 23.2161 52.5639 29.3478 45 29.3478C37.4361 29.3478 31.3043 23.2161 31.3043 15.6522C31.3043 8.08829 37.4361 1.95654 45 1.95654C52.5639 1.95654 58.6956 8.08829 58.6956 15.6522Z" fill="#926725"/>
<path d="M54.6154 15.6522C54.6154 10.342 50.3102 6.03677 45 6.03677C39.6898 6.03677 35.3845 10.342 35.3845 15.6522C35.3845 20.9624 39.6898 25.2676 45 25.2676V29.3478C37.4361 29.3478 31.3043 23.2161 31.3043 15.6522C31.3043 8.08829 37.4361 1.95654 45 1.95654C52.5639 1.95654 58.6956 8.08829 58.6956 15.6522C58.6956 23.2161 52.5639 29.3478 45 29.3478V25.2676C50.3102 25.2676 54.6154 20.9624 54.6154 15.6522Z" fill="#926725"/>
<path d="M58.6956 13.6957C58.6956 21.2596 52.5639 27.3913 45 27.3913C37.4361 27.3913 31.3043 21.2596 31.3043 13.6957C31.3043 6.13175 37.4361 0 45 0C52.5639 0 58.6956 6.13175 58.6956 13.6957Z" fill="#FEF7EC"/>
<path d="M54.6154 13.6957C54.6154 8.38542 50.3102 4.08023 45 4.08023C39.6898 4.08023 35.3845 8.38542 35.3845 13.6957C35.3845 19.0058 39.6898 23.3111 45 23.3111V27.3913C37.4361 27.3913 31.3043 21.2596 31.3043 13.6957C31.3043 6.13175 37.4361 0 45 0C52.5639 0 58.6956 6.13175 58.6956 13.6957C58.6956 21.2596 52.5639 27.3913 45 27.3913V23.3111C50.3102 23.3111 54.6154 19.0058 54.6154 13.6957Z" fill="#926725"/>
<path d="M87.0653 15.6522C87.0653 23.2161 80.9335 29.3478 73.3696 29.3478C65.8057 29.3478 59.674 23.2161 59.674 15.6522C59.674 8.08829 65.8057 1.95654 73.3696 1.95654C80.9335 1.95654 87.0653 8.08829 87.0653 15.6522Z" fill="#926725"/>
<path d="M82.985 15.6522C82.985 10.342 78.6798 6.03677 73.3696 6.03677C68.0594 6.03677 63.7542 10.342 63.7542 15.6522C63.7542 20.9624 68.0594 25.2676 73.3696 25.2676V29.3478C65.8057 29.3478 59.674 23.2161 59.674 15.6522C59.674 8.08829 65.8057 1.95654 73.3696 1.95654C80.9335 1.95654 87.0653 8.08829 87.0653 15.6522C87.0653 23.2161 80.9335 29.3478 73.3696 29.3478V25.2676C78.6798 25.2676 82.985 20.9624 82.985 15.6522Z" fill="#926725"/>
<path d="M87.0653 13.6957C87.0653 21.2596 80.9335 27.3913 73.3696 27.3913C65.8057 27.3913 59.674 21.2596 59.674 13.6957C59.674 6.13175 65.8057 0 73.3696 0C80.9335 0 87.0653 6.13175 87.0653 13.6957Z" fill="#FEF7EC"/>
<path d="M82.985 13.6957C82.985 8.38542 78.6798 4.08023 73.3696 4.08023C68.0594 4.08023 63.7542 8.38542 63.7542 13.6957C63.7542 19.0058 68.0594 23.3111 73.3696 23.3111V27.3913C65.8057 27.3913 59.674 21.2596 59.674 13.6957C59.674 6.13175 65.8057 0 73.3696 0C80.9335 0 87.0653 6.13175 87.0653 13.6957C87.0653 21.2596 80.9335 27.3913 73.3696 27.3913V23.3111C78.6798 23.3111 82.985 19.0058 82.985 13.6957Z" fill="#926725"/>
<path d="M30.3261 45.9782C30.3261 53.5422 24.1944 59.6739 16.6305 59.6739C9.06656 59.6739 2.93481 53.5422 2.93481 45.9782C2.93481 38.4143 9.06656 32.2826 16.6305 32.2826C24.1944 32.2826 30.3261 38.4143 30.3261 45.9782Z" fill="#926725"/>
<path d="M26.2459 45.9782C26.2459 40.668 21.9407 36.3628 16.6305 36.3628C11.3203 36.3628 7.01504 40.668 7.01504 45.9782C7.01504 51.2884 11.3203 55.5937 16.6305 55.5937V59.6739C9.06656 59.6739 2.93481 53.5422 2.93481 45.9782C2.93481 38.4143 9.06656 32.2826 16.6305 32.2826C24.1944 32.2826 30.3261 38.4143 30.3261 45.9782C30.3261 53.5422 24.1944 59.6739 16.6305 59.6739V55.5937C21.9407 55.5937 26.2459 51.2884 26.2459 45.9782Z" fill="#926725"/>
<path d="M30.3261 44.0217C30.3261 51.5856 24.1944 57.7174 16.6305 57.7174C9.06656 57.7174 2.93481 51.5856 2.93481 44.0217C2.93481 36.4578 9.06656 30.326 16.6305 30.326C24.1944 30.326 30.3261 36.4578 30.3261 44.0217Z" fill="#F3AC3D"/>
<path d="M26.2459 44.0217C26.2459 38.7115 21.9407 34.4063 16.6305 34.4063C11.3203 34.4063 7.01504 38.7115 7.01504 44.0217C7.01504 49.3319 11.3203 53.6371 16.6305 53.6371V57.7174C9.06656 57.7174 2.93481 51.5856 2.93481 44.0217C2.93481 36.4578 9.06656 30.326 16.6305 30.326C24.1944 30.326 30.3261 36.4578 30.3261 44.0217C30.3261 51.5856 24.1944 57.7174 16.6305 57.7174V53.6371C21.9407 53.6371 26.2459 49.3319 26.2459 44.0217Z" fill="#926725"/>
<path d="M58.6956 45.9782C58.6956 53.5422 52.5639 59.6739 45 59.6739C37.4361 59.6739 31.3043 53.5422 31.3043 45.9782C31.3043 38.4143 37.4361 32.2826 45 32.2826C52.5639 32.2826 58.6956 38.4143 58.6956 45.9782Z" fill="#926725"/>
<path d="M54.6154 45.9782C54.6154 40.668 50.3102 36.3628 45 36.3628C39.6898 36.3628 35.3845 40.668 35.3845 45.9782C35.3845 51.2884 39.6898 55.5937 45 55.5937V59.6739C37.4361 59.6739 31.3043 53.5422 31.3043 45.9782C31.3043 38.4143 37.4361 32.2826 45 32.2826C52.5639 32.2826 58.6956 38.4143 58.6956 45.9782C58.6956 53.5422 52.5639 59.6739 45 59.6739V55.5937C50.3102 55.5937 54.6154 51.2884 54.6154 45.9782Z" fill="#926725"/>
<path d="M58.6956 44.0217C58.6956 51.5856 52.5639 57.7174 45 57.7174C37.4361 57.7174 31.3043 51.5856 31.3043 44.0217C31.3043 36.4578 37.4361 30.326 45 30.326C52.5639 30.326 58.6956 36.4578 58.6956 44.0217Z" fill="#FEF7EC"/>
<path d="M54.6154 44.0217C54.6154 38.7115 50.3102 34.4063 45 34.4063C39.6898 34.4063 35.3845 38.7115 35.3845 44.0217C35.3845 49.3319 39.6898 53.6371 45 53.6371V57.7174C37.4361 57.7174 31.3043 51.5856 31.3043 44.0217C31.3043 36.4578 37.4361 30.326 45 30.326C52.5639 30.326 58.6956 36.4578 58.6956 44.0217C58.6956 51.5856 52.5639 57.7174 45 57.7174V53.6371C50.3102 53.6371 54.6154 49.3319 54.6154 44.0217Z" fill="#926725"/>
<path d="M87.0653 45.9782C87.0653 53.5422 80.9335 59.6739 73.3696 59.6739C65.8057 59.6739 59.674 53.5422 59.674 45.9782C59.674 38.4143 65.8057 32.2826 73.3696 32.2826C80.9335 32.2826 87.0653 38.4143 87.0653 45.9782Z" fill="#F8CD8B"/>
<path d="M82.985 45.9782C82.985 40.668 78.6798 36.3628 73.3696 36.3628C68.0594 36.3628 63.7542 40.668 63.7542 45.9782C63.7542 51.2884 68.0594 55.5937 73.3696 55.5937V59.6739C65.8057 59.6739 59.674 53.5422 59.674 45.9782C59.674 38.4143 65.8057 32.2826 73.3696 32.2826C80.9335 32.2826 87.0653 38.4143 87.0653 45.9782C87.0653 53.5422 80.9335 59.6739 73.3696 59.6739V55.5937C78.6798 55.5937 82.985 51.2884 82.985 45.9782Z" fill="#926725"/>
<path d="M87.0653 44.0217C87.0653 51.5856 80.9335 57.7174 73.3696 57.7174C65.8057 57.7174 59.674 51.5856 59.674 44.0217C59.674 36.4578 65.8057 30.326 73.3696 30.326C80.9335 30.326 87.0653 36.4578 87.0653 44.0217Z" fill="#F8CD8B"/>
<path d="M82.985 44.0217C82.985 38.7115 78.6798 34.4063 73.3696 34.4063C68.0594 34.4063 63.7542 38.7115 63.7542 44.0217C63.7542 49.3319 68.0594 53.6371 73.3696 53.6371V57.7174C65.8057 57.7174 59.674 51.5856 59.674 44.0217C59.674 36.4578 65.8057 30.326 73.3696 30.326C80.9335 30.326 87.0653 36.4578 87.0653 44.0217C87.0653 51.5856 80.9335 57.7174 73.3696 57.7174V53.6371C78.6798 53.6371 82.985 49.3319 82.985 44.0217Z" fill="#926725"/>
<path d="M30.3261 76.3043C30.3261 83.8682 24.1944 89.9999 16.6305 89.9999C9.06656 89.9999 2.93481 83.8682 2.93481 76.3043C2.93481 68.7404 9.06656 62.6086 16.6305 62.6086C24.1944 62.6086 30.3261 68.7404 30.3261 76.3043Z" fill="#926725"/>
<path d="M26.2459 76.3043C26.2459 70.9941 21.9407 66.6889 16.6305 66.6889C11.3203 66.6889 7.01504 70.9941 7.01504 76.3043C7.01504 81.6145 11.3203 85.9197 16.6305 85.9197V89.9999C9.06656 89.9999 2.93481 83.8682 2.93481 76.3043C2.93481 68.7404 9.06656 62.6086 16.6305 62.6086C24.1944 62.6086 30.3261 68.7404 30.3261 76.3043C30.3261 83.8682 24.1944 89.9999 16.6305 89.9999V85.9197C21.9407 85.9197 26.2459 81.6145 26.2459 76.3043Z" fill="#926725"/>
<path d="M30.3261 74.3479C30.3261 81.9118 24.1944 88.0435 16.6305 88.0435C9.06656 88.0435 2.93481 81.9118 2.93481 74.3479C2.93481 66.784 9.06656 60.6522 16.6305 60.6522C24.1944 60.6522 30.3261 66.784 30.3261 74.3479Z" fill="#F3AC3D"/>
<path d="M26.2459 74.3479C26.2459 69.0377 21.9407 64.7324 16.6305 64.7324C11.3203 64.7324 7.01504 69.0377 7.01504 74.3479C7.01504 79.6581 11.3203 83.9633 16.6305 83.9633V88.0435C9.06656 88.0435 2.93481 81.9118 2.93481 74.3479C2.93481 66.784 9.06656 60.6522 16.6305 60.6522C24.1944 60.6522 30.3261 66.784 30.3261 74.3479C30.3261 81.9118 24.1944 88.0435 16.6305 88.0435V83.9633C21.9407 83.9633 26.2459 79.6581 26.2459 74.3479Z" fill="#926725"/>
<path d="M58.6956 76.3043C58.6956 83.8682 52.5639 89.9999 45 89.9999C37.4361 89.9999 31.3043 83.8682 31.3043 76.3043C31.3043 68.7404 37.4361 62.6086 45 62.6086C52.5639 62.6086 58.6956 68.7404 58.6956 76.3043Z" fill="#926725"/>
<path d="M54.6154 76.3043C54.6154 70.9941 50.3102 66.6889 45 66.6889C39.6898 66.6889 35.3845 70.9941 35.3845 76.3043C35.3845 81.6145 39.6898 85.9197 45 85.9197V89.9999C37.4361 89.9999 31.3043 83.8682 31.3043 76.3043C31.3043 68.7404 37.4361 62.6086 45 62.6086C52.5639 62.6086 58.6956 68.7404 58.6956 76.3043C58.6956 83.8682 52.5639 89.9999 45 89.9999V85.9197C50.3102 85.9197 54.6154 81.6145 54.6154 76.3043Z" fill="#926725"/>
<path d="M58.6956 74.3479C58.6956 81.9118 52.5639 88.0435 45 88.0435C37.4361 88.0435 31.3043 81.9118 31.3043 74.3479C31.3043 66.784 37.4361 60.6522 45 60.6522C52.5639 60.6522 58.6956 66.784 58.6956 74.3479Z" fill="#F3AC3D"/>
<path d="M54.6154 74.3479C54.6154 69.0377 50.3102 64.7324 45 64.7324C39.6898 64.7324 35.3845 69.0377 35.3845 74.3479C35.3845 79.6581 39.6898 83.9633 45 83.9633V88.0435C37.4361 88.0435 31.3043 81.9118 31.3043 74.3479C31.3043 66.784 37.4361 60.6522 45 60.6522C52.5639 60.6522 58.6956 66.784 58.6956 74.3479C58.6956 81.9118 52.5639 88.0435 45 88.0435V83.9633C50.3102 83.9633 54.6154 79.6581 54.6154 74.3479Z" fill="#926725"/>
<path d="M87.0653 76.3043C87.0653 83.8682 80.9335 89.9999 73.3696 89.9999C65.8057 89.9999 59.674 83.8682 59.674 76.3043C59.674 68.7404 65.8057 62.6086 73.3696 62.6086C80.9335 62.6086 87.0653 68.7404 87.0653 76.3043Z" fill="#926725"/>
<path d="M82.985 76.3043C82.985 70.9941 78.6798 66.6889 73.3696 66.6889C68.0594 66.6889 63.7542 70.9941 63.7542 76.3043C63.7542 81.6145 68.0594 85.9197 73.3696 85.9197V89.9999C65.8057 89.9999 59.674 83.8682 59.674 76.3043C59.674 68.7404 65.8057 62.6086 73.3696 62.6086C80.9335 62.6086 87.0653 68.7404 87.0653 76.3043C87.0653 83.8682 80.9335 89.9999 73.3696 89.9999V85.9197C78.6798 85.9197 82.985 81.6145 82.985 76.3043Z" fill="#926725"/>
<path d="M87.0653 74.3479C87.0653 81.9118 80.9335 88.0435 73.3696 88.0435C65.8057 88.0435 59.674 81.9118 59.674 74.3479C59.674 66.784 65.8057 60.6522 73.3696 60.6522C80.9335 60.6522 87.0653 66.784 87.0653 74.3479Z" fill="#F3AC3D"/>
<path d="M82.985 74.3479C82.985 69.0377 78.6798 64.7324 73.3696 64.7324C68.0594 64.7324 63.7542 69.0377 63.7542 74.3479C63.7542 79.6581 68.0594 83.9633 73.3696 83.9633V88.0435C65.8057 88.0435 59.674 81.9118 59.674 74.3479C59.674 66.784 65.8057 60.6522 73.3696 60.6522C80.9335 60.6522 87.0653 66.784 87.0653 74.3479C87.0653 81.9118 80.9335 88.0435 73.3696 88.0435V83.9633C78.6798 83.9633 82.985 79.6581 82.985 74.3479Z" fill="#926725"/>
</svg>
